<?xml version="1.0"?>
<svg xmlns="http://www.w3.org/2000/svg" id="color" enable-background="new 0 0 24 24" height="278px" viewBox="0 0 24 24" width="185px" class="option-img"><g><path d="m21 1h-18c-1.654 0-3 1.346-3 3v16c0 1.654 1.346 3 3 3h18c1.654 0 3-1.346 3-3v-16c0-1.654-1.346-3-3-3z" fill="#607d8b" data-original="#607D8B" class="" data-old_color="#607d8b" style="fill:#FFFFFF"/><path d="m21 21h-18c-.551 0-1-.448-1-1v-14h20v14c0 .552-.449 1-1 1z" fill="#fff" data-original="#FFF" class="" data-old_color="#fff" style="fill:#FFFFFF"/><path d="m12 20c-3.309 0-6-2.691-6-6s2.691-6 6-6 6 2.691 6 6-2.691 6-6 6z" fill="#f44336" data-original="#F44336" class="active-path" style="fill:#A30005" data-old_color="#f44336"/><path d="m10 17c-.256 0-.512-.098-.707-.293-.391-.391-.391-1.023 0-1.414l4-4c.391-.391 1.023-.391 1.414 0s.391 1.023 0 1.414l-4 4c-.195.195-.451.293-.707.293z" fill="#fff" data-original="#FFF" class="" data-old_color="#fff" style="fill:#FFFFFF"/><path d="m14 17c-.256 0-.512-.098-.707-.293l-4-4c-.391-.391-.391-1.023 0-1.414s1.023-.391 1.414 0l4 4c.391.391.391 1.023 0 1.414-.195.195-.451.293-.707.293z" fill="#fff" data-original="#FFF" class="" data-old_color="#fff" style="fill:#FFFFFF"/><path d="m12 1h-9c-1.654 0-3 1.346-3 3v16c0 1.654 1.346 3 3 3h9v-2h-9c-.551 0-1-.448-1-1v-14h10z" fill="#546d79" data-original="#546D79" class="" data-old_color="#546d79" style="fill:#FFFFFF"/><path d="m12 6h-10v14c0 .552.449 1 1 1h9v-1c-3.309 0-6-2.691-6-6s2.691-6 6-6z" fill="#dedede" data-original="#DEDEDE" class="" data-old_color="#dedede" style="fill:#FFFFFF"/><path d="m12 8c-3.309 0-6 2.691-6 6s2.691 6 6 6v-4.586l-1.293 1.293c-.195.195-.451.293-.707.293s-.512-.098-.707-.293c-.391-.391-.391-1.023 0-1.414l1.293-1.293-1.293-1.293c-.391-.391-.391-1.023 0-1.414.195-.195.451-.293.707-.293s.512.098.707.293l1.293 1.293z" fill="#d43a2f" data-original="#D43A2F" class="" style="fill:#A30005" data-old_color="#d43a2f"/><g fill="#dedede"><path d="m10.586 14-1.293 1.293c-.391.391-.391 1.023 0 1.414.195.195.451.293.707.293s.512-.098.707-.293l1.293-1.293z" data-original="#DEDEDE" class="" data-old_color="#DEDEDE" style="fill:#FFFFFF"/><path d="m10 11c-.256 0-.512.098-.707.293-.391.391-.391 1.023 0 1.414l1.293 1.293 1.414 1.414v-2.828l-1.293-1.293c-.195-.195-.451-.293-.707-.293z" data-original="#DEDEDE" class="" data-old_color="#DEDEDE" style="fill:#FFFFFF"/></g></g> </svg>
